{
  "asset": {
    "version": "2.0",
    "generator": "THREE.GLTFExporter"
  },
  "scenes": [
    {
      "nodes": [
        1,
        2
      ],
      "name": "MYFACE"
    }
  ],
  "scene": 0,
  "nodes": [
    {
      "matrix": [
        0.05000000074505806,
        0,
        0,
        0,
        0,
        -0.04999034130098322,
        0.0009836049233610806,
        0,
        0,
        -0.0009836049233610806,
        -0.04999034130098322,
        0,
        0,
        -8.088398933410645,
        0,
        1
      ],
      "name": "Character_Father_02_1",
      "extras": {
        "name": "Character_Father_02_1"
      },
      "mesh": 0
    },
    {
      "name": "MyFace.glb",
      "children": [
        0
      ]
    },
    {
      "matrix": [
        1,
        0,
        0,
        0,
        0,
        1,
        0,
        0,
        0,
        0,
        1,
        0,
        5,
        10,
        7.5,
        1
      ],
      "name": "DirectionalLight",
      "extensions": {
        "KHR_lights_punctual": {
          "light": 0
        }
      }
    }
  ],
  "bufferViews": [
    {
      "buffer": 0,
      "byteOffset": 0,
      "byteLength": 4500,
      "target": 34962,
      "byteStride": 12
    },
    {
      "buffer": 0,
      "byteOffset": 4500,
      "byteLength": 4500,
      "target": 34962,
      "byteStride": 12
    },
    {
      "buffer": 0,
      "byteOffset": 9000,
      "byteLength": 3000,
      "target": 34962,
      "byteStride": 8
    },
    {
      "buffer": 0,
      "byteOffset": 12000,
      "byteLength": 3000,
      "target": 34962,
      "byteStride": 8
    },
    {
      "buffer": 0,
      "byteOffset": 15000,
      "byteLength": 2760,
      "target": 34963
    }
  ],
  "buffers": [
    {
      "byteLength": 17760,
      "uri": "data:application/octet-stream;base64,"
    }
  ],
  "accessors": [
    {
      "bufferView": 0,
      "componentType": 5126,
      "count": 375,
      "max": [
        15.919302940368652,
        -145.48841857910156,
        15.942976951599121
      ],
      "min": [
        -16.945674896240234,
        -181.89584350585938,
        -17.772459030151367
      ],
      "type": "VEC3"
    },
    {
      "bufferView": 1,
      "componentType": 5126,
      "count": 375,
      "max": [
        0.9988097548484802,
        0.9978026747703552,
        0.9897152781486511
      ],
      "min": [
        -0.9988097548484802,
        -0.9972533583641052,
        -1
      ],
      "type": "VEC3"
    },
    {
      "bufferView": 2,
      "componentType": 5126,
      "count": 375,
      "max": [
        0.32752299308776855,
        0.988179087638855
      ],
      "min": [
        0.013987736776471138,
        0.812347412109375
      ],
      "type": "VEC2"
    },
    {
      "bufferView": 3,
      "componentType": 5126,
      "count": 375,
      "max": [
        1,
        1
      ],
      "min": [
        0,
        0
      ],
      "type": "VEC2"
    },
    {
      "bufferView": 4,
      "componentType": 5123,
      "count": 1380,
      "max": [
        374
      ],
      "min": [
        0
      ],
      "type": "SCALAR"
    }
  ],
  "materials": [
    {
      "pbrMetallicRoughness": {
        "metallicFactor": 0,
        "roughnessFactor": 0.5527864098548889,
        "baseColorTexture": {
          "index": 0
        }
      },
      "name": "PolygonTown_03_A"
    }
  ],
  "textures": [
    {
      "sampler": 0,
      "source": 0
    }
  ],
  "samplers": [
    {
      "magFilter": 9729,
      "minFilter": 9987,
      "wrapS": 10497,
      "wrapT": 10497
    }
  ],
  "images": [
    {
      "mimeType": "image/png",
      "uri": "data:image/png;base64,"
    }
  ],
  "meshes": [
    {
      "primitives": [
        {
          "mode": 4,
          "attributes": {
            "POSITION": 0,
            "NORMAL": 1,
            "TEXCOORD_0": 2,
            "TEXCOORD_1": 3
          },
          "indices": 4,
          "material": 0
        }
      ]
    }
  ],
  "extensions": {
    "KHR_lights_punctual": {
      "lights": [
        {
          "name": "DirectionalLight",
          "color": [
            1,
            1,
            1
          ],
          "intensity": 1,
          "type": "directional"
        }
      ]
    }
  },
  "extensionsUsed": [
    "KHR_lights_punctual"
  ]
}